<svg xmlns="http://www.w3.org/2000/svg" xmlns:xlink="http://www.w3.org/1999/xlink" width="500" zoomAndPan="magnify" viewBox="0 0 375 374.999991" height="500" preserveAspectRatio="xMidYMid meet" version="1.0"><defs><radialGradient gradientTransform="matrix(1, 0, 0, 1, 0.0000045, 0)" gradientUnits="userSpaceOnUse" r="530.33023" cx="0" id="3db5709575" cy="0" fx="0" fy="0"><stop stop-opacity="1" stop-color="rgb(0.0732422%, 0.0793457%, 0.10376%)" offset="0"/><stop stop-opacity="1" stop-color="rgb(0.283813%, 0.308228%, 0.402832%)" offset="0.03125"/><stop stop-opacity="1" stop-color="rgb(0.550842%, 0.596619%, 0.779724%)" offset="0.0898438"/><stop stop-opacity="1" stop-color="rgb(0.799561%, 0.865173%, 1.132202%)" offset="0.144531"/><stop stop-opacity="1" stop-color="rgb(1.028442%, 1.113892%, 1.457214%)" offset="0.195312"/><stop stop-opacity="1" stop-color="rgb(1.249695%, 1.353455%, 1.77002%)" offset="0.242188"/><stop stop-opacity="1" stop-color="rgb(1.461792%, 1.582336%, 2.070618%)" offset="0.289062"/><stop stop-opacity="1" stop-color="rgb(1.654053%, 1.791382%, 2.34375%)" offset="0.332031"/><stop stop-opacity="1" stop-color="rgb(1.838684%, 1.991272%, 2.604675%)" offset="0.371094"/><stop stop-opacity="1" stop-color="rgb(2.01416%, 2.180481%, 2.851868%)" offset="0.410156"/><stop stop-opacity="1" stop-color="rgb(2.1698%, 2.349854%, 3.07312%)" offset="0.445312"/><stop stop-opacity="1" stop-color="rgb(2.31781%, 2.508545%, 3.282166%)" offset="0.476562"/><stop stop-opacity="1" stop-color="rgb(2.528381%, 2.738953%, 3.581238%)" offset="0.507812"/><stop stop-opacity="1" stop-color="rgb(2.786255%, 3.016663%, 3.945923%)" offset="0.566406"/><stop stop-opacity="1" stop-color="rgb(3.016663%, 3.265381%, 4.270935%)" offset="0.617188"/><stop stop-opacity="1" stop-color="rgb(3.218079%, 3.485107%, 4.5578%)" offset="0.664062"/><stop stop-opacity="1" stop-color="rgb(3.393555%, 3.674316%, 4.806519%)" offset="0.703125"/><stop stop-opacity="1" stop-color="rgb(3.549194%, 3.843689%, 5.027771%)" offset="0.738281"/><stop stop-opacity="1" stop-color="rgb(3.752136%, 4.063416%, 5.31311%)" offset="0.769531"/><stop stop-opacity="1" stop-color="rgb(3.982544%, 4.312134%, 5.639648%)" offset="0.824219"/><stop stop-opacity="1" stop-color="rgb(4.156494%, 4.501343%, 5.886841%)" offset="0.867188"/><stop stop-opacity="1" stop-color="rgb(4.350281%, 4.710388%, 6.161499%)" offset="0.898438"/><stop stop-opacity="1" stop-color="rgb(4.588318%, 4.969788%, 6.500244%)" offset="0.949219"/><stop stop-opacity="1" stop-color="rgb(4.708862%, 5.099487%, 6.669617%)" offset="1"/></radialGradient><clipPath id="09938b37fd"><path d="M 178.296875 187.667969 L 262.5 187.667969 L 262.5 262.5 L 178.296875 262.5 Z M 178.296875 187.667969 " clip-rule="nonzero"/></clipPath><clipPath id="16eca08ef6"><path d="M 112.5 112.5 L 232 112.5 L 232 243 L 112.5 243 Z M 112.5 112.5 " clip-rule="nonzero"/></clipPath></defs><rect x="-37.5" width="450" fill="#ffffff" y="-37.499999" height="449.999989" fill-opacity="1"/><rect x="-37.5" fill="url(#3db5709575)" width="450" y="-37.499999" height="449.999989"/><g clip-path="url(#09938b37fd)"><path fill="#ffffff" d="M 244.117188 187.808594 L 184.882812 187.808594 L 184.882812 204.71875 L 242.136719 204.71875 C 241.175781 208.800781 239.871094 212.796875 238.222656 216.699219 C 234.445312 225.628906 229.039062 233.648438 222.152344 240.535156 C 215.269531 247.417969 207.246094 252.824219 198.316406 256.605469 C 191.890625 259.320312 185.191406 261.109375 178.308594 261.945312 C 181.339844 262.316406 184.40625 262.5 187.5 262.5 C 197.621094 262.5 207.445312 260.519531 216.699219 256.605469 C 225.628906 252.824219 233.648438 247.417969 240.535156 240.535156 C 247.417969 233.648438 252.828125 225.628906 256.605469 216.699219 C 260.476562 207.539062 262.460938 197.820312 262.5 187.808594 L 244.117188 187.808594 " fill-opacity="1" fill-rule="nonzero"/></g><g clip-path="url(#16eca08ef6)"><path fill="#ffffff" d="M 129.429688 187.808594 C 129.429688 149.523438 160.464844 118.484375 198.75 118.484375 C 210.476562 118.484375 221.523438 121.398438 231.207031 126.539062 C 226.703125 123.300781 221.851562 120.578125 216.699219 118.398438 C 207.445312 114.484375 197.621094 112.5 187.5 112.5 C 177.378906 112.5 167.558594 114.484375 158.304688 118.398438 C 149.371094 122.175781 141.351562 127.582031 134.46875 134.46875 C 127.582031 141.351562 122.175781 149.371094 118.398438 158.304688 C 114.484375 167.558594 112.5 177.378906 112.5 187.5 C 112.5 187.980469 112.507812 188.460938 112.515625 188.941406 L 112.519531 188.941406 C 113.175781 215.140625 131.722656 236.980469 156.375 242.671875 C 139.984375 229.992188 129.429688 210.132812 129.429688 187.808594 " fill-opacity="1" fill-rule="nonzero"/></g></svg>